<mxfile host="app.diagrams.net" modified="2022-08-08T10:36:38.508Z" agent="5.0 (Windows NT 10.0; Win64; x64) AppleWebKit/537.36 (KHTML, like Gecko) Chrome/103.0.0.0 Safari/537.36" etag="GSVVaun8drypDHcDnnxP" version="20.2.2" type="github">
  <diagram id="C5RBs43oDa-KdzZeNtuy" name="Page-1">
    <mxGraphModel dx="1422" dy="762" grid="0" gridSize="10" guides="1" tooltips="1" connect="1" arrows="1" fold="1" page="1" pageScale="1" pageWidth="827" pageHeight="1169" math="0" shadow="0">
      <root>
        <mxCell id="WIyWlLk6GJQsqaUBKTNV-0" />
        <mxCell id="WIyWlLk6GJQsqaUBKTNV-1" parent="WIyWlLk6GJQsqaUBKTNV-0" />
        <mxCell id="gS-gUmE_YttaVzdTsZu5-10" value="" style="edgeStyle=orthogonalEdgeStyle;rounded=0;orthogonalLoop=1;jettySize=auto;html=1;" edge="1" parent="WIyWlLk6GJQsqaUBKTNV-1" source="gS-gUmE_YttaVzdTsZu5-0" target="gS-gUmE_YttaVzdTsZu5-9">
          <mxGeometry relative="1" as="geometry" />
        </mxCell>
        <mxCell id="gS-gUmE_YttaVzdTsZu5-0" value="用户手动执行恢复程序" style="rounded=1;whiteSpace=wrap;html=1;fontSize=12;glass=0;strokeWidth=1;shadow=0;" vertex="1" parent="WIyWlLk6GJQsqaUBKTNV-1">
          <mxGeometry x="212" y="162" width="130" height="60" as="geometry" />
        </mxCell>
        <mxCell id="gS-gUmE_YttaVzdTsZu5-12" value="" style="edgeStyle=orthogonalEdgeStyle;rounded=0;orthogonalLoop=1;jettySize=auto;html=1;" edge="1" parent="WIyWlLk6GJQsqaUBKTNV-1" source="gS-gUmE_YttaVzdTsZu5-9" target="gS-gUmE_YttaVzdTsZu5-11">
          <mxGeometry relative="1" as="geometry" />
        </mxCell>
        <mxCell id="gS-gUmE_YttaVzdTsZu5-13" value="是" style="edgeLabel;html=1;align=center;verticalAlign=middle;resizable=0;points=[];" vertex="1" connectable="0" parent="gS-gUmE_YttaVzdTsZu5-12">
          <mxGeometry x="-0.3091" y="3" relative="1" as="geometry">
            <mxPoint as="offset" />
          </mxGeometry>
        </mxCell>
        <mxCell id="gS-gUmE_YttaVzdTsZu5-23" style="edgeStyle=orthogonalEdgeStyle;rounded=0;orthogonalLoop=1;jettySize=auto;html=1;entryX=0;entryY=0.75;entryDx=0;entryDy=0;" edge="1" parent="WIyWlLk6GJQsqaUBKTNV-1" source="gS-gUmE_YttaVzdTsZu5-9" target="gS-gUmE_YttaVzdTsZu5-14">
          <mxGeometry relative="1" as="geometry">
            <mxPoint x="101" y="595" as="targetPoint" />
            <Array as="points">
              <mxPoint x="157" y="315" />
              <mxPoint x="157" y="587" />
            </Array>
          </mxGeometry>
        </mxCell>
        <mxCell id="gS-gUmE_YttaVzdTsZu5-24" value="否" style="edgeLabel;html=1;align=center;verticalAlign=middle;resizable=0;points=[];" vertex="1" connectable="0" parent="gS-gUmE_YttaVzdTsZu5-23">
          <mxGeometry x="-0.0901" y="-1" relative="1" as="geometry">
            <mxPoint as="offset" />
          </mxGeometry>
        </mxCell>
        <mxCell id="gS-gUmE_YttaVzdTsZu5-9" value="EdgerOS 是否&lt;br&gt;正在运行 ？" style="rhombus;whiteSpace=wrap;html=1;rounded=1;glass=0;strokeWidth=1;shadow=0;" vertex="1" parent="WIyWlLk6GJQsqaUBKTNV-1">
          <mxGeometry x="214.5" y="252" width="125" height="120" as="geometry" />
        </mxCell>
        <mxCell id="gS-gUmE_YttaVzdTsZu5-15" value="" style="edgeStyle=orthogonalEdgeStyle;rounded=0;orthogonalLoop=1;jettySize=auto;html=1;" edge="1" parent="WIyWlLk6GJQsqaUBKTNV-1" source="gS-gUmE_YttaVzdTsZu5-11" target="gS-gUmE_YttaVzdTsZu5-14">
          <mxGeometry relative="1" as="geometry" />
        </mxCell>
        <mxCell id="gS-gUmE_YttaVzdTsZu5-11" value="使用 acrnclt 强制关掉 EdgerOS" style="whiteSpace=wrap;html=1;rounded=1;glass=0;strokeWidth=1;shadow=0;" vertex="1" parent="WIyWlLk6GJQsqaUBKTNV-1">
          <mxGeometry x="217" y="432" width="120" height="60" as="geometry" />
        </mxCell>
        <mxCell id="gS-gUmE_YttaVzdTsZu5-43" style="edgeStyle=orthogonalEdgeStyle;rounded=0;orthogonalLoop=1;jettySize=auto;html=1;exitX=0.5;exitY=1;exitDx=0;exitDy=0;" edge="1" parent="WIyWlLk6GJQsqaUBKTNV-1" source="gS-gUmE_YttaVzdTsZu5-14" target="gS-gUmE_YttaVzdTsZu5-28">
          <mxGeometry relative="1" as="geometry" />
        </mxCell>
        <mxCell id="gS-gUmE_YttaVzdTsZu5-14" value="解压镜像压缩包到 sda3 分区，文件名为 backup" style="whiteSpace=wrap;html=1;rounded=1;glass=0;strokeWidth=1;shadow=0;" vertex="1" parent="WIyWlLk6GJQsqaUBKTNV-1">
          <mxGeometry x="217" y="542" width="120" height="60" as="geometry" />
        </mxCell>
        <mxCell id="gS-gUmE_YttaVzdTsZu5-25" value="执行启动脚本启动 EdgerOS" style="whiteSpace=wrap;html=1;rounded=1;glass=0;strokeWidth=1;shadow=0;" vertex="1" parent="WIyWlLk6GJQsqaUBKTNV-1">
          <mxGeometry x="445" y="652" width="120" height="60" as="geometry" />
        </mxCell>
        <mxCell id="gS-gUmE_YttaVzdTsZu5-35" style="edgeStyle=orthogonalEdgeStyle;rounded=0;orthogonalLoop=1;jettySize=auto;html=1;exitX=0.5;exitY=1;exitDx=0;exitDy=0;entryX=0.5;entryY=0;entryDx=0;entryDy=0;" edge="1" parent="WIyWlLk6GJQsqaUBKTNV-1" source="gS-gUmE_YttaVzdTsZu5-26" target="gS-gUmE_YttaVzdTsZu5-25">
          <mxGeometry relative="1" as="geometry" />
        </mxCell>
        <mxCell id="gS-gUmE_YttaVzdTsZu5-26" value="重命名文件名为虚拟硬盘镜像文件名" style="whiteSpace=wrap;html=1;rounded=1;glass=0;strokeWidth=1;shadow=0;" vertex="1" parent="WIyWlLk6GJQsqaUBKTNV-1">
          <mxGeometry x="445" y="542" width="120" height="60" as="geometry" />
        </mxCell>
        <mxCell id="gS-gUmE_YttaVzdTsZu5-31" value="" style="edgeStyle=orthogonalEdgeStyle;rounded=0;orthogonalLoop=1;jettySize=auto;html=1;" edge="1" parent="WIyWlLk6GJQsqaUBKTNV-1" source="gS-gUmE_YttaVzdTsZu5-28" target="gS-gUmE_YttaVzdTsZu5-30">
          <mxGeometry relative="1" as="geometry">
            <Array as="points">
              <mxPoint x="392" y="682" />
              <mxPoint x="392" y="131" />
              <mxPoint x="505" y="131" />
            </Array>
          </mxGeometry>
        </mxCell>
        <mxCell id="gS-gUmE_YttaVzdTsZu5-28" value="挂载 backup 虚拟硬盘镜像的 Boot 分区" style="whiteSpace=wrap;html=1;rounded=1;glass=0;strokeWidth=1;shadow=0;" vertex="1" parent="WIyWlLk6GJQsqaUBKTNV-1">
          <mxGeometry x="217" y="652" width="120" height="60" as="geometry" />
        </mxCell>
        <mxCell id="gS-gUmE_YttaVzdTsZu5-39" value="" style="edgeStyle=orthogonalEdgeStyle;rounded=0;orthogonalLoop=1;jettySize=auto;html=1;" edge="1" parent="WIyWlLk6GJQsqaUBKTNV-1" source="gS-gUmE_YttaVzdTsZu5-30" target="gS-gUmE_YttaVzdTsZu5-38">
          <mxGeometry relative="1" as="geometry" />
        </mxCell>
        <mxCell id="gS-gUmE_YttaVzdTsZu5-30" value="拷贝激活文件到 Boot 分区所挂载的路径" style="whiteSpace=wrap;html=1;rounded=1;glass=0;strokeWidth=1;shadow=0;" vertex="1" parent="WIyWlLk6GJQsqaUBKTNV-1">
          <mxGeometry x="445" y="162" width="120" height="60" as="geometry" />
        </mxCell>
        <mxCell id="gS-gUmE_YttaVzdTsZu5-41" value="" style="edgeStyle=orthogonalEdgeStyle;rounded=0;orthogonalLoop=1;jettySize=auto;html=1;" edge="1" parent="WIyWlLk6GJQsqaUBKTNV-1" source="gS-gUmE_YttaVzdTsZu5-38" target="gS-gUmE_YttaVzdTsZu5-40">
          <mxGeometry relative="1" as="geometry" />
        </mxCell>
        <mxCell id="gS-gUmE_YttaVzdTsZu5-38" value="卸载 Boot 分区" style="whiteSpace=wrap;html=1;rounded=1;glass=0;strokeWidth=1;shadow=0;" vertex="1" parent="WIyWlLk6GJQsqaUBKTNV-1">
          <mxGeometry x="445" y="282" width="120" height="60" as="geometry" />
        </mxCell>
        <mxCell id="gS-gUmE_YttaVzdTsZu5-42" style="edgeStyle=orthogonalEdgeStyle;rounded=0;orthogonalLoop=1;jettySize=auto;html=1;" edge="1" parent="WIyWlLk6GJQsqaUBKTNV-1" source="gS-gUmE_YttaVzdTsZu5-40" target="gS-gUmE_YttaVzdTsZu5-26">
          <mxGeometry relative="1" as="geometry" />
        </mxCell>
        <mxCell id="gS-gUmE_YttaVzdTsZu5-40" value="sync" style="whiteSpace=wrap;html=1;rounded=1;glass=0;strokeWidth=1;shadow=0;" vertex="1" parent="WIyWlLk6GJQsqaUBKTNV-1">
          <mxGeometry x="445" y="432" width="120" height="60" as="geometry" />
        </mxCell>
      </root>
    </mxGraphModel>
  </diagram>
</mxfile>
